<?xml version="1.0" encoding="utf-8"?>
<!-- Generator: Adobe Illustrator 23.0.3, SVG Export Plug-In . SVG Version: 6.00 Build 0)  -->
<svg version="1.1" id="Layer_1" xmlns="http://www.w3.org/2000/svg" xmlns:xlink="http://www.w3.org/1999/xlink" x="0px" y="0px"
	 viewBox="0 0 324 194.82" style="enable-background:new 0 0 324 194.82;" xml:space="preserve">
<style type="text/css">
	.st0{fill:#FFFFFF;}
	.st1{fill:url(#SVGID_1_);}
	.st2{fill:url(#SVGID_2_);}
	.st3{fill:url(#SVGID_3_);}
	.st4{fill:url(#SVGID_4_);}
	.st5{fill:url(#SVGID_5_);}
	.st6{fill:url(#SVGID_6_);}
	.st7{fill:url(#SVGID_7_);}
	.st8{fill:url(#SVGID_8_);}
	.st9{fill:url(#SVGID_9_);}
	.st10{fill:url(#SVGID_10_);}
	.st11{fill:url(#SVGID_11_);}
	.st12{fill:url(#SVGID_12_);}
	.st13{fill:url(#SVGID_13_);}
	.st14{fill:url(#SVGID_14_);}
	.st15{fill:url(#SVGID_15_);}
	.st16{fill:url(#SVGID_16_);}
	.st17{fill:url(#SVGID_17_);}
	.st18{fill:url(#SVGID_18_);}
	.st19{fill:url(#SVGID_19_);}
	.st20{fill:url(#SVGID_20_);}
	.st21{fill:url(#SVGID_21_);}
	.st22{fill:url(#SVGID_22_);}
	.st23{fill:url(#SVGID_23_);}
	.st24{fill:url(#SVGID_24_);}
	.st25{fill:url(#SVGID_25_);}
	.st26{fill:url(#SVGID_26_);}
	.st27{fill:url(#SVGID_27_);}
	.st28{fill:url(#SVGID_28_);}
	.st29{fill:url(#SVGID_29_);}
	.st30{fill:url(#SVGID_30_);}
	.st31{fill:url(#SVGID_31_);}
	.st32{fill:url(#SVGID_32_);}
	.st33{fill:url(#SVGID_33_);}
	.st34{fill:url(#SVGID_34_);}
	.st35{fill:url(#SVGID_35_);}
	.st36{fill:url(#SVGID_36_);}
	.st37{fill:url(#SVGID_37_);}
	.st38{fill:url(#SVGID_38_);}
	.st39{fill:url(#SVGID_39_);}
	.st40{fill:url(#SVGID_40_);}
	.st41{fill:url(#SVGID_41_);}
	.st42{fill:url(#SVGID_42_);}
	.st43{fill:url(#SVGID_43_);}
	.st44{fill:url(#SVGID_44_);}
	.st45{fill:url(#SVGID_45_);}
</style>
<g>
	<g>
		<path class="st0" d="M110.06,43.42c0.59,1.11,1.56,2.12,2.49,3.09c1.47,1.52,2.99,3.1,3.31,5.3c0.2,1.38-0.12,2.84-0.46,4.4
			c-0.49,2.25-1,4.58,0.09,6.64c0.97,1.84,1.85,3.54,2.63,5.11c0.26,0.3,0.52,0.56,0.78,0.78c-2.43-8.4,0.25-16.57,1.91-18.57
			c1.42-1.72,7.46-0.95,10.44,6.87c0.08,0.02,0.17,0.04,0.26,0.05c0.77,0.1,1.6-0.04,2.31-0.36c-0.8-2.63-1.61-4.85-2.48-6.18
			c-3.2-4.88-9.31-8.66-9.31-8.66c-0.86-2.39-3.6-5.52-7.09-6.78c-3.49-1.26-4.31-1.77-4.74-3.7c-0.43-1.94,3.97-6.78,9.05-6.29
			c-3.79-0.8-11.14-0.16-15.08,3.72c1.61,3.36,3.06,7.14,4.42,10.82C109.21,41.37,109.76,42.86,110.06,43.42z"/>
		<path class="st0" d="M144.93,87.45c-0.69-3.65-1.31-4.23-4.62-9.71c-1.32-2.19-2.51-6.18-3.66-10.49
			c-0.98-0.67-2.09-1.02-3.35-1.22c1.79,8.39,3.69,11.5,5.76,14.41c2.41,3.39,6.33,8.76,1.98,19.04
			C143.72,94.99,145.63,91.1,144.93,87.45z"/>
		<path class="st0" d="M65.96,48.75c1.32-0.72,2.45-1.42,3.42-2.09c1.09-0.76,1.98-1.48,2.72-2.15c2.38-2.15,3.3-3.78,4.5-4.31
			c1.91-0.84,1.97,0.96,2.58,2.34c7.15-1.93,9.77-6.57,11.36-10.95c-2.81,2.32-4.44-0.4-7.25,1.22c4.12-3.94,2.62-6.14,2.29-11.07
			c0.11,8.1-7.94,11.51-8.8,15.69c-5.23-1.36-7.13,1.05-8.51,3.26c1.16-1.53,4.22-2.03,7.08-1.55
			C72.82,40.09,71.06,44.25,65.96,48.75z"/>
		<path class="st0" d="M131.81,58.76c-0.03,0-0.06,0-0.09,0c-0.03,0-0.06,0-0.09,0c-0.12-0.01-0.23-0.02-0.35-0.03c0,0,0,0-0.01,0
			c-0.01,0-0.01,0-0.02,0c-0.17-0.02-0.33-0.06-0.49-0.09c-0.02-0.01-0.04-0.01-0.07-0.02c-0.16-0.04-0.31-0.09-0.47-0.15
			c-0.03-0.01-0.06-0.02-0.09-0.03c-0.15-0.06-0.3-0.13-0.44-0.2c-0.02-0.01-0.05-0.03-0.07-0.04c-0.15-0.08-0.29-0.17-0.43-0.27
			c0,0-0.01-0.01-0.01-0.01c-0.13-0.1-0.26-0.21-0.38-0.33c-0.02-0.02-0.04-0.03-0.05-0.05c-0.12-0.12-0.23-0.25-0.33-0.38
			c-0.02-0.03-0.04-0.05-0.06-0.08c-0.1-0.14-0.19-0.29-0.28-0.45c-0.01-0.02-0.03-0.05-0.04-0.08c-0.09-0.17-0.17-0.35-0.24-0.54
			c-0.08-0.21-0.15-0.41-0.23-0.61c-0.02-0.05-0.04-0.1-0.06-0.15c-0.07-0.18-0.14-0.35-0.22-0.51c-0.01-0.01-0.01-0.03-0.02-0.04
			c-0.08-0.17-0.16-0.33-0.24-0.49c-0.02-0.04-0.04-0.08-0.06-0.12c-0.07-0.13-0.14-0.26-0.21-0.38c-0.01-0.02-0.02-0.04-0.03-0.06
			c-0.08-0.13-0.16-0.25-0.24-0.37c-0.02-0.03-0.04-0.06-0.06-0.09c-0.07-0.1-0.14-0.19-0.21-0.27c-0.01-0.02-0.03-0.04-0.04-0.05
			c-0.08-0.09-0.17-0.18-0.25-0.26c-0.02-0.02-0.04-0.04-0.06-0.06c-0.07-0.06-0.14-0.12-0.22-0.17c-0.02-0.01-0.04-0.03-0.05-0.04
			c-0.09-0.06-0.17-0.11-0.26-0.15c-0.02-0.01-0.04-0.02-0.06-0.03c-0.07-0.03-0.15-0.06-0.22-0.09c-0.02-0.01-0.04-0.01-0.06-0.02
			c-0.09-0.02-0.18-0.04-0.26-0.05c-0.12-0.01-0.24-0.02-0.37-0.01c-0.03,0-0.06,0.01-0.09,0.01c-0.1,0.01-0.2,0.03-0.29,0.06
			c-0.04,0.01-0.09,0.03-0.13,0.04c-0.09,0.03-0.18,0.07-0.28,0.11c-0.04,0.02-0.08,0.03-0.12,0.06c-0.13,0.07-0.26,0.14-0.4,0.23
			c-1.9,0.93-3.35,5.77-2.41,10.54c0.94,4.77,7.42,5.05,8.85,9.89c1.42,4.84-2.49,8.95,3.61,13.53c5.66,4.25,4.7,7.77,4.54,8.25
			c1.55-3.72-0.28-7.69-2.51-9.37c-2.24-1.69-2.96-6.62-2.49-9.42c0.48-2.8-3.71-9.22-1.88-11.32c0.14-0.16,0.3-0.31,0.48-0.45h0
			c0.31,0.02,0.62,0.04,0.93,0.07c0.02,0,0.05,0,0.07,0.01c0.23,0.02,0.46,0.04,0.68,0.07c0,0,0,0,0,0
			c0.07,0.01,0.14,0.01,0.21,0.02c1.03,0.14,2.01,0.36,2.92,0.74c0,0,0,0,0,0c0.01,0,0.02,0.01,0.03,0.01
			c0.09,0.04,0.17,0.07,0.25,0.11c0.03,0.01,0.06,0.02,0.08,0.04c0.11,0.05,0.22,0.11,0.33,0.16c0.02,0.01,0.05,0.03,0.07,0.04
			c0.09,0.05,0.17,0.09,0.25,0.14c0.04,0.02,0.07,0.05,0.11,0.07c0.07,0.04,0.14,0.08,0.21,0.13c0.04,0.03,0.08,0.05,0.12,0.08
			c0.07,0.04,0.13,0.09,0.19,0.14c0.04,0.03,0.08,0.06,0.12,0.09c0.06,0.05,0.13,0.1,0.19,0.15c0.04,0.03,0.07,0.06,0.11,0.09
			c0.07,0.06,0.14,0.12,0.21,0.19c0.03,0.02,0.05,0.05,0.08,0.07c0.1,0.09,0.19,0.18,0.29,0.28c0.02,0.02,0.03,0.03,0.05,0.05
			c0.08,0.08,0.16,0.16,0.23,0.25c0.03,0.04,0.06,0.07,0.09,0.11c0.06,0.07,0.12,0.14,0.18,0.21c0.03,0.04,0.07,0.09,0.1,0.13
			c0.06,0.07,0.11,0.14,0.16,0.22c0.03,0.05,0.07,0.09,0.1,0.14c0.05,0.08,0.11,0.15,0.16,0.23c0.03,0.05,0.06,0.09,0.09,0.14
			c0.06,0.09,0.11,0.18,0.17,0.28c0.02,0.04,0.05,0.08,0.07,0.12c0.08,0.14,0.16,0.28,0.24,0.42c0.01,0.02,0.02,0.03,0.03,0.05
			c0.07,0.13,0.14,0.26,0.2,0.4c0.03,0.05,0.05,0.11,0.07,0.16c0.05,0.1,0.1,0.21,0.15,0.32c0.03,0.06,0.05,0.13,0.08,0.19
			c0.04,0.1,0.09,0.21,0.13,0.32c0.03,0.07,0.05,0.14,0.08,0.2c0.04,0.11,0.08,0.22,0.13,0.34c0.03,0.07,0.05,0.14,0.08,0.21
			c0.04,0.12,0.09,0.25,0.13,0.38c0.02,0.06,0.04,0.12,0.06,0.19c0.06,0.19,0.12,0.39,0.18,0.6c0.04-0.13,0.07-0.26,0.09-0.39
			c0.01-0.04,0.01-0.09,0.02-0.13c0.02-0.09,0.03-0.17,0.04-0.26c0.01-0.05,0.01-0.11,0.02-0.16c0.01-0.08,0.02-0.16,0.02-0.24
			c0-0.06,0-0.11,0.01-0.17c0-0.08,0.01-0.15,0.01-0.23c0-0.06,0-0.12,0-0.18c0-0.07,0-0.15-0.01-0.22c0-0.06-0.01-0.12-0.01-0.18
			c-0.01-0.07-0.01-0.15-0.02-0.22c-0.01-0.06-0.02-0.12-0.03-0.19c-0.01-0.07-0.02-0.15-0.04-0.22c-0.01-0.06-0.02-0.13-0.04-0.19
			c-0.01-0.07-0.03-0.14-0.05-0.22c-0.01-0.06-0.03-0.13-0.05-0.19c-0.02-0.07-0.04-0.14-0.06-0.21c-0.02-0.06-0.04-0.12-0.06-0.19
			c-0.02-0.07-0.05-0.14-0.07-0.21c-0.02-0.06-0.04-0.12-0.07-0.19c-0.03-0.07-0.05-0.14-0.08-0.21c-0.02-0.06-0.05-0.12-0.08-0.18
			c-0.03-0.07-0.06-0.14-0.09-0.21c-0.03-0.06-0.05-0.12-0.08-0.18c-0.03-0.07-0.07-0.14-0.11-0.21c-0.03-0.06-0.06-0.12-0.09-0.17
			c-0.04-0.07-0.08-0.14-0.12-0.2c-0.03-0.06-0.06-0.11-0.1-0.17c-0.04-0.07-0.09-0.14-0.14-0.21c-0.03-0.05-0.06-0.1-0.1-0.15
			c-0.08-0.12-0.16-0.23-0.25-0.34c-0.04-0.05-0.07-0.09-0.11-0.14c-0.05-0.07-0.1-0.14-0.16-0.2c-0.04-0.05-0.08-0.1-0.13-0.15
			c-0.05-0.06-0.1-0.12-0.16-0.18c-0.05-0.05-0.09-0.1-0.14-0.15c-0.05-0.06-0.11-0.11-0.16-0.17c-0.05-0.05-0.1-0.1-0.15-0.14
			c-0.05-0.05-0.11-0.1-0.17-0.15c-0.05-0.05-0.1-0.09-0.16-0.14c-0.06-0.05-0.11-0.1-0.17-0.15c-0.05-0.04-0.11-0.09-0.16-0.13
			c-0.06-0.05-0.12-0.09-0.18-0.14c-0.06-0.04-0.11-0.08-0.17-0.12c-0.06-0.04-0.12-0.08-0.19-0.13c-0.06-0.04-0.12-0.08-0.18-0.11
			c-0.06-0.04-0.13-0.08-0.19-0.12c-0.06-0.03-0.12-0.07-0.18-0.1c-0.07-0.04-0.13-0.07-0.2-0.11c-0.06-0.03-0.12-0.06-0.18-0.09
			c-0.07-0.03-0.14-0.06-0.21-0.09c-0.06-0.03-0.12-0.05-0.19-0.08c-0.07-0.03-0.15-0.06-0.22-0.08c-0.06-0.02-0.12-0.05-0.18-0.07
			c-0.08-0.03-0.15-0.05-0.23-0.07c-0.06-0.02-0.12-0.04-0.18-0.05c-0.08-0.02-0.17-0.04-0.25-0.06c-0.2-0.05-0.41-0.09-0.62-0.12
			c-0.29-0.04-0.58-0.06-0.88-0.06c0,0,0,0,0,0c2.12-0.73,4.33-1.26,4.3-2.42c-0.04-1.81,0.59-7.93,4.23-8.87
			c-4.42,0.94-4.19,2.6-6.1,5.16c-0.07,0.09-0.14,0.17-0.21,0.26c-0.02,0.03-0.05,0.05-0.08,0.08c-0.05,0.05-0.1,0.11-0.15,0.16
			c-0.03,0.03-0.06,0.06-0.1,0.09c-0.05,0.05-0.1,0.09-0.15,0.14c-0.04,0.03-0.07,0.06-0.11,0.09c-0.05,0.04-0.11,0.08-0.16,0.13
			c-0.04,0.03-0.08,0.06-0.11,0.08c-0.06,0.04-0.11,0.08-0.17,0.12c-0.04,0.02-0.08,0.05-0.12,0.07c-0.06,0.04-0.13,0.07-0.19,0.11
			c-0.04,0.02-0.07,0.04-0.11,0.06c-0.07,0.04-0.15,0.08-0.22,0.11c-0.03,0.01-0.06,0.03-0.09,0.04c-0.09,0.04-0.18,0.08-0.27,0.11
			l0,0C133.5,58.64,132.64,58.79,131.81,58.76C131.81,58.76,131.81,58.76,131.81,58.76z"/>
		<path class="st0" d="M131.84,105.84c0.52-1.88,1.05-4.29,1.24-6.7c0.39-5.14-2.12-5.78-2.7-8.1c-0.59-2.33-0.36-3.29-2.63-5.7
			c-2.27-2.4-0.17-7.61-1.51-9.59c-1.33-1.98-2.86-7.67-5.23-6.39c0.22,3.52,3.08,6.8,3.22,8.72c0.14,1.92,0.28,5.33-1.86,10.83
			c-1.92,4.95-6.18,13.13,0.1,19.68c0.41-0.1,0.81-0.2,1.21-0.3c-2.53-4.85-4.36-10.07,1.39-17.96c1.13-1.7,1.53-1.74,1.39,0.84
			c-0.15,2.58,3.13,4.91,3.49,7.46c0.23,1.67-0.8,5.75-1.54,8.36C129.61,106.6,130.76,106.23,131.84,105.84z"/>
		<path class="st0" d="M222.88,67.83c0,0-0.84,0.74-1.97,3.56c0,0-0.16-9.9,0.4-12.49c-5.11,3.99-16.78,2.31-21.89,4.39
			c-0.32-0.04,0.58-0.85,0.34-2.73c-0.27,0.75-1.5,2.15-5.76,4.65c-7.5,4.41-13.58,6.14-17.24,19.15
			c-0.65,0.87-0.56-6.13,1.59-11.79c-5.1,7.92-8.77,11.47-8.44,13c0.33,1.53,4.17,2.16,1.47,4.87c0.61-2.73-2.04-3.41-3.9-4.75
			c-1.46-0.92-0.68-5.05-1.65-7.36c0,0,0.45,1.97,0.19,6.16c-0.81,7.99-6.39,16.6-6.39,16.6s0.8-2.76,0.93-6.89
			c0,0-5.04,5.06-9.1,5.26s-9.01,6.12-12.7,7.54c0,0,0.8-2.02,1.53-4.26c-3.97,4.99-22.37,9.1-34.91,9.86
			c-12.54,0.76-25.34,8.28-31.05,11.97c-1.51,6.49-11.18,11.99-16.34,14.06c0,0,0.01,0.01,0.03,0.03
			c-14.29,4.83-23.69,5.62-31.9,2.94c-0.56-0.18-1.5-0.57-1.53-1.12c-0.12-2.5,9.42-9.24,31-18.63c2.86-1.25,7.07-2.54,11.97-3.82
			c7.33-1.67,14.58-3.29,21.21-4.74c15.15-3.01,29.23-5.22,29.49-5.26l-0.64-2c-2.71-6.74,4.03-20.83,3.9-24.48
			c-0.13-3.84-5.33-13.81-7.51-17.92c-2.17-4.11,0.62-8.65,0.19-11.57c-0.43-2.92-4-4.77-5.63-7.85
			c-1.63-3.08-7.24-23.21-14.4-24.71c0.61,1.77,0.82,3.66,0.59,5.77c-0.02,0.19-0.05,0.38-0.08,0.58c-0.03,0.19-0.06,0.39-0.1,0.59
			c-0.11,0.6-0.25,1.21-0.44,1.84c-0.12,0.42-0.26,0.85-0.41,1.29c-0.08,0.22-0.16,0.44-0.24,0.66c-0.17,0.45-0.36,0.9-0.56,1.37
			c-0.2,0.47-0.42,0.94-0.66,1.42c-0.24,0.48-0.49,0.98-0.77,1.48c-0.41,0.76-0.86,1.54-1.35,2.35c-0.65,1.08-1.38,2.2-2.19,3.37
			c4.62-4.97,7.92-11.21,7.92-11.21c0.14,6.02,0.23,11.49-3.49,17.81c2.39-6.63,2.14-9.8,2.09-11.45
			c-2.13,3.67-8.24,9.53-23.29,10.91c-3.96,14.2-17.33,33.54-26.74,35.54c1.49,5.11-1.82,13.53-1.82,13.53
			c0.16,0.05,0.32,0.1,0.48,0.16c0.32,0.11,0.65,0.25,0.98,0.39c1.32,0.59,2.67,1.44,3.93,2.36c0.32,0.23,0.63,0.46,0.93,0.7
			c0.15,0.12,0.3,0.24,0.45,0.35c0.44,0.35,0.87,0.71,1.27,1.05c2,1.71,3.38,3.18,3.38,3.18c0.13,0.18,0.3,0.36,0.49,0.55
			c0.57,0.57,1.3,1.17,1.76,1.7c0.04,0.05,0.09,0.1,0.14,0.14c0.02,0.01,0.03,0.02,0.05,0.04c0.04,0.03,0.07,0.05,0.11,0.07
			c0.02,0.01,0.04,0.02,0.06,0.03c0.04,0.02,0.08,0.03,0.12,0.05c0.02,0.01,0.04,0.02,0.07,0.02c0.04,0.01,0.09,0.02,0.13,0.03
			c0.02,0,0.04,0.01,0.06,0.01c0.08,0.01,0.16,0.01,0.24,0.01c0.02,0,0.04,0,0.05-0.01c0.08-0.01,0.17-0.02,0.25-0.05
			c0.16-0.05,0.32-0.09,0.49-0.13c0.05-0.01,0.11-0.02,0.17-0.04c0.11-0.03,0.23-0.05,0.34-0.07c0.07-0.01,0.14-0.03,0.21-0.04
			c0.11-0.02,0.21-0.04,0.32-0.05c0.07-0.01,0.15-0.02,0.22-0.03c0.11-0.01,0.21-0.03,0.32-0.04c0.08-0.01,0.15-0.02,0.23-0.03
			c0.11-0.01,0.22-0.02,0.33-0.03c0.08-0.01,0.15-0.01,0.23-0.02c0.11-0.01,0.23-0.01,0.35-0.02c0.07,0,0.15-0.01,0.22-0.01
			c0.13-0.01,0.26-0.01,0.39-0.01c0.06,0,0.12,0,0.18-0.01c0.19,0,0.38,0,0.57,0c0.03,0,0.05,0,0.08,0c0.16,0,0.33,0,0.49,0.01
			c0.07,0,0.14,0,0.21,0.01c0.12,0,0.24,0.01,0.36,0.01c0.08,0,0.16,0.01,0.24,0.01c0.11,0.01,0.22,0.01,0.33,0.02
			c0.08,0,0.16,0.01,0.24,0.02c0.11,0.01,0.22,0.02,0.33,0.02c0.08,0.01,0.16,0.01,0.23,0.02c0.11,0.01,0.22,0.02,0.33,0.03
			c0.07,0.01,0.15,0.01,0.22,0.02c0.11,0.01,0.23,0.02,0.34,0.03c0.07,0.01,0.13,0.01,0.2,0.02c0.12,0.01,0.25,0.03,0.37,0.04
			c0.05,0.01,0.1,0.01,0.15,0.02c0.17,0.02,0.34,0.04,0.5,0.06c0,0,0,0,0.01,0c0.14,0.02,0.28,0.04,0.42,0.06
			c0.04,0.01,0.08,0.01,0.12,0.02c0.1,0.01,0.19,0.03,0.29,0.04c0.05,0.01,0.1,0.02,0.16,0.02c0.08,0.01,0.16,0.02,0.23,0.04
			c0.05,0.01,0.11,0.02,0.16,0.03c0.07,0.01,0.14,0.02,0.21,0.03c0.05,0.01,0.1,0.02,0.15,0.03c0.07,0.01,0.13,0.02,0.2,0.03
			c0.04,0.01,0.09,0.02,0.13,0.02c0.07,0.01,0.13,0.02,0.2,0.04c0.04,0.01,0.07,0.01,0.11,0.02c0.08,0.02,0.16,0.03,0.23,0.04
			c0.02,0,0.03,0.01,0.05,0.01c0.09,0.02,0.17,0.03,0.24,0.05c0.03,0.01,0.06,0.01,0.1,0.02c0.04,0.01,0.09,0.02,0.13,0.03
			c0.03,0.01,0.06,0.01,0.08,0.02c0.04,0.01,0.07,0.01,0.1,0.02c0.02,0.01,0.05,0.01,0.07,0.01c0.03,0.01,0.06,0.01,0.08,0.02
			c0.02,0,0.04,0.01,0.05,0.01c0.03,0.01,0.05,0.01,0.07,0.02c0.01,0,0.02,0,0.03,0.01c0.02,0,0.03,0.01,0.04,0.01
			c0.03,0.01,0.04,0.01,0.04,0.01c1.05-6.81,6.93-15.02,15.61-19.72c8.68-4.7,24.2-11.61,17.63-24.63c2.91,4,3.19,7.38,2.1,11
			c-0.12,0.4-0.26,0.81-0.41,1.22c-0.08,0.2-0.16,0.41-0.24,0.62c-0.42,1.03-0.93,2.1-1.5,3.21c-0.11,0.22-0.23,0.45-0.35,0.67
			c-0.59,1.13-1.24,2.31-1.92,3.56c-0.27,0.5-0.61,1.06-1.01,1.68c-1.59,2.47-4.17,5.82-7.46,9.52c-0.41,0.46-0.83,0.93-1.27,1.4
			c-0.43,0.47-0.88,0.95-1.33,1.43c-1.59,1.68-3.3,3.39-5.11,5.11c-0.52,0.49-1.04,0.98-1.58,1.47c-0.8,0.73-1.62,1.46-2.45,2.18
			c-0.56,0.48-1.12,0.96-1.69,1.43c-0.57,0.47-1.15,0.94-1.73,1.41c-1.16,0.93-2.35,1.84-3.56,2.72c-0.9,0.66-1.82,1.31-2.75,1.93
			c-0.62,0.42-1.24,0.83-1.86,1.22c-0.01,0.01-0.03,0.02-0.04,0.03c-2.29,1.46-4.79,2.56-7.4,3.33c-2.92,0.87-5.45,1.73-7.4,2.58
			c-4.59,2-13.36,5.97-20.62,10.1c-10.58,6.03-11.7,8.9-11.62,10.53c0.04,0.94,0.59,2.22,2.96,2.99c1.85,0.6,3.76,1.04,5.75,1.31
			c7.52,1.01,16.31-0.41,28.41-4.59c3.93-0.08,16.38,2.15,23.09,1.66c7.19-0.52,17.6-8.37,32.43-10.83s22.61,0.6,31.81,0.14
			c9.2-0.46,10.35-3.5,13.1-4.93c-2.29,0.44-3.17-0.96-7.51-1.86c5.62,0.47,11.13-0.6,15.85-2.33c4.76-4.3,7.45-9.01,7.35-14.14
			c0.42,3.16,0.4,6.58-0.6,10.14c-0.08,0.28-0.17,0.57-0.26,0.86c-0.01,0.04-0.03,0.09-0.04,0.13c1.21-0.71,2.31-1.44,3.26-2.16
			c5.33-4.06,11.17-2.43,14.67-3.98c-4.11,0.51-4.34-0.9-8.09-0.66c0,0-1.06-2.37,12.37-5.83c13.43-3.45,16.03-6.19,19.39-9.88
			c-4.65,3.73-6.7,1.65-12.8,2.74c0,0,7.46-5.69,13.15-11.62C222.49,81.8,221.85,70.77,222.88,67.83z M48.5,90.25
			c-0.71-0.36-0.94-1.99-0.94-1.99c1.02-1.16,1.47-2.41,2.11-3.94c0.1-0.01,0.2-0.02,0.3-0.03s0.19-0.01,0.28-0.01
			c0.32,0,0.64,0.03,1,0.03c0.31,0,0.66-0.02,1.09-0.09c0.36-0.06,0.76-0.16,1.25-0.31c0.29-0.09,0.61-0.21,0.96-0.34
			c0.82-0.32,1.82-0.78,3.06-1.42C54.37,84.31,48.96,86.49,48.5,90.25z M81.58,54.64c-0.09,0.16-0.17,0.33-0.24,0.5
			c-0.07,0.17-0.13,0.34-0.19,0.5c-0.06,0.17-0.11,0.34-0.15,0.51c-0.02,0.08-0.05,0.17-0.07,0.25c-0.09,0.34-0.16,0.67-0.23,0.99
			c-0.04,0.16-0.07,0.32-0.11,0.47c-0.08,0.31-0.17,0.6-0.28,0.87c-0.11,0.27-0.24,0.52-0.42,0.74c-0.09,0.11-0.18,0.21-0.29,0.3
			c-0.16,0.14-0.35,0.26-0.56,0.36c-0.51,0.23-1.17,0.55-1.9,0.91c-0.1,0.05-0.21,0.1-0.32,0.16c-0.21,0.11-0.43,0.21-0.65,0.32
			c-0.33,0.16-0.66,0.33-0.99,0.5c-0.33,0.17-0.66,0.33-0.97,0.5c-0.11,0.05-0.21,0.11-0.31,0.16c-0.21,0.11-0.41,0.21-0.6,0.31
			c-0.1,0.05-0.19,0.1-0.28,0.15c-0.18,0.1-0.36,0.19-0.52,0.27c-0.82,0.43-1.36,0.71-1.36,0.71c3.01-3.14,3.68-6.05,3.68-6.05
			c0.17-0.06,0.34-0.12,0.52-0.18c0.05-0.02,0.11-0.04,0.16-0.06c0.03-0.01,0.06-0.02,0.08-0.03c0.2-0.08,0.4-0.17,0.6-0.26
			c0.06-0.03,0.11-0.05,0.17-0.08c0.06-0.03,0.12-0.05,0.18-0.08c0.03-0.01,0.05-0.03,0.08-0.04c0.09-0.04,0.18-0.09,0.27-0.13
			c0.03-0.02,0.06-0.03,0.09-0.05c0.08-0.04,0.17-0.09,0.25-0.13c0.04-0.02,0.09-0.05,0.13-0.07c0.07-0.04,0.14-0.07,0.21-0.11
			c0.06-0.03,0.12-0.07,0.18-0.1c0.05-0.03,0.11-0.06,0.16-0.09c0.05-0.03,0.1-0.06,0.15-0.09c0.06-0.04,0.12-0.07,0.19-0.11
			c0.04-0.03,0.09-0.05,0.13-0.08c0.07-0.04,0.13-0.08,0.2-0.12c0.02-0.01,0.04-0.03,0.06-0.04c0.09-0.05,0.17-0.11,0.26-0.16
			c0.04-0.03,0.08-0.05,0.12-0.08c0.07-0.04,0.13-0.08,0.2-0.13c0.05-0.03,0.1-0.06,0.15-0.1c0.05-0.04,0.11-0.07,0.16-0.11
			c0.03-0.02,0.07-0.05,0.1-0.07c0.07-0.04,0.13-0.09,0.2-0.13c0.01-0.01,0.03-0.02,0.04-0.03c0.08-0.06,0.17-0.11,0.25-0.17
			c0.02-0.02,0.05-0.03,0.07-0.05c0.07-0.05,0.14-0.1,0.21-0.14c0.03-0.02,0.05-0.04,0.08-0.06c0.06-0.05,0.13-0.09,0.19-0.14
			c0.01-0.01,0.02-0.02,0.04-0.03c0.07-0.05,0.15-0.11,0.22-0.16c0.03-0.02,0.05-0.04,0.08-0.06c0.05-0.04,0.11-0.08,0.16-0.12
			c0.03-0.02,0.05-0.04,0.07-0.05c0.05-0.04,0.11-0.08,0.16-0.12c0,0,0.01-0.01,0.01-0.01c0.07-0.05,0.14-0.1,0.2-0.15
			c0,0,0.01-0.01,0.01-0.01c0.13-0.1,0.25-0.2,0.36-0.28c0.02-0.02,0.04-0.03,0.06-0.05c0.04-0.03,0.07-0.06,0.1-0.08
			c0.01-0.01,0.02-0.02,0.04-0.03c0.14-0.11,0.25-0.2,0.34-0.27c0.05-0.04,0.08-0.07,0.12-0.09c0.02-0.02,0.04-0.03,0.05-0.04
			c0.02-0.02,0.03-0.03,0.03-0.03C82.2,53.68,81.84,54.15,81.58,54.64z M194.41,96.94c-8.63,3.3-11.22,1.25-19.65,7.07
			c-8.43,5.82-18.45,17.87-47.2,19.85c-28.75,1.98-35.03,5.27-47.61,8.68c-4.17,1.13-8.2,2.42-11.62,3.62l-0.03-0.06
			c3.3-1.5,8.41-4.64,12.97-6.36c18.92-7.12,30.79-6.91,39.63-7.84c8.84-0.94,11.07,0.64,25.94-4.05
			c14.87-4.69,20.67-11.46,31.77-20.47c2.74-8.54,5.46-17.67,16.18-22.28c10.72-4.62,10.12,1.36,19.28-4.31
			C209.99,78.31,213.52,89.2,194.41,96.94z"/>
		<path class="st0" d="M139.76,29.74c2.09,5.9,4.79,5.05,4.76,8.39c-0.02,3.34-3.59,2.91-4.16,0.66c0.73,5.87,7.02,9.9,8.5,11.32
			c1.48,1.41-0.02,2.43-2.05,3.98c3.12,1.63,8.14,6.11,5.96,7.64c-2.18,1.53-3.52-0.93-7.74-2.32c0,0,2.46,3.13,2.05,8.48
			c-0.42,5.36,0.76,7.9,1.91,10.64c1.15,2.74,6.87,1.99,8.88,6.21c-1.54-0.97-5.03-2.5-8.33-1.27c2.37,0.47,1.57,9.78,5.48,11.15
			c1.99,0.7,4.73-1.66,6.96-4.15c2.49-2.79,3.62-6.54,3.11-10.25l-0.27-1.99c0,0-6.87-35.85-8.11-39.05
			c-1.24-3.2-8.75-4.97-9.69-10.35c-0.95-5.38,3.39-5.99,1.43-10.65c5.74,8.97,8.99,3.18,12.63,11.11c3.64,7.93-0.48,9.2-0.04,13.81
			s4.08,27.22,4.08,27.22l2.8,12.9c0.07,0.34,0.52,0.43,0.71,0.14c0.74-1.11,2.21-3.3,4.02-5.86c-2.4-11.52,3.62-21.27,3.18-28.16
			c0,0-1.61,2.97-3.82,4.7c1.52-3.39,1.43-5.02,1.78-7.56c0.34-2.54-0.03-4.26,0.26-7.56c0,0-1.96,2.17-3.82,3.59
			c2-1.78,2.83-5.42,2.68-9.25c-0.03,2.83-3.56,3.03-4.91,5.46c0,0,2.33-6.06-0.25-17.34C163.1,9.8,148.49,11.18,142.18,0
			C145.54,8.35,137.67,23.84,139.76,29.74z"/>
		<path class="st0" d="M169.06,123.22c-16.14,14.39-52.39,22.4-72.56,25.89c-28.9,5.01-59.33,6.89-75.71,4.69
			c-6.54-0.88-10.29-2.37-11.44-4.54c-0.37-0.7-0.67-1.84,0.03-3.25c3.37-6.79,9.2-12.29,16.09-17.15
			c-4.41,2.62-8.29,5.12-11.61,7.51C1.69,145.1-0.37,150.29,0.05,153.09c0.54,3.64,5.81,6.24,15.23,7.51
			c12.97,1.74,33.76,0.88,60.14-2.5c51.25-6.57,83.02-17.42,94.43-32.25c1.99-2.59,3.38-5.32,4.16-8.21
			C172.74,119.54,171.09,121.41,169.06,123.22z"/>
	</g>
	<g>
		<path class="st0" d="M244.3,110.66c-5.48,1.08-5.95,3.32-7.49,10.5l-6.41,29.96c-0.54,2.47-0.85,4.94-0.85,5.87
			c0,1.93,0.7,3.32,4.56,3.78l-0.15,0.7h-16.37l0.15-0.7c3.71-0.54,5.56-1.93,6.56-5.33c0.54-1.85,2.63-10.97,2.63-13.51
			c0-0.7,0-1.54-0.77-2.47c-2.09-2.7-4.71-5.33-5.25-5.87l-18.23-18.3l-7.65,35.83c-0.54,2.47-0.85,4.94-0.85,5.87
			c0,1.85,0.7,3.32,4.79,3.78l-0.15,0.7h-16.29l0.15-0.7c5.48-1.08,5.95-3.32,7.49-10.5l6.33-29.89c0.77-3.78,0.85-5.56,0.85-5.95
			c0-1.93-0.77-3.09-4.09-3.78l0.15-0.7h19.54l-0.15,0.7c-0.93,0.08-1.39,0.15-1.39,0.7c0,0.77,1.78,2.39,2.93,3.55l15.52,14.83
			l2.01-9.34c0.77-3.78,0.85-5.56,0.85-5.95c0-2.01-0.77-3.17-4.09-3.78l0.15-0.7h15.68L244.3,110.66z"/>
		<path class="st0" d="M275.35,159.31c-2.93,1.31-7.18,3.17-13.21,3.17c-13.67,0-19.15-9.58-19.15-17.53
			c0-13.51,13.67-22.86,25.79-22.86c6.56,0,11.74,2.63,11.74,7.41c0,9.73-17.99,12.67-28.65,12.97c-0.31,1.08-0.46,1.78-0.46,3.55
			c0,6.64,3.48,13.05,11.04,13.05c3.24,0,6.8-1.16,10.19-3.78c3.63-2.86,4.87-5.48,5.95-7.88l0.54,0.23L275.35,159.31z
			 M272.34,129.58c0-2.24-1.7-4.09-4.56-4.09c-3.78,0-12.2,3.63-15.06,13.82C264.15,138.93,272.34,134.68,272.34,129.58z"/>
		<path class="st0" d="M321.07,121.01c0.93,1.54,2.93,4.71,2.93,11.2c0,12.43-8.96,30.27-23.09,30.27c-5.79,0-12.05-3.4-12.05-10.12
			c0-2.24,0.31-3.32,1-6.64l1.85-8.96c0.46-2.24,0.93-5.56,0.93-7.41c0-1.85-1-4.63-4.94-4.79l-0.08-0.7l10.89-1.24
			c1,1,2.39,2.55,2.39,5.71c0,2.47-0.23,3.94-1,7.57l-2.09,10.04c-0.54,2.55-1,5.33-1,6.72c0,4.48,3.71,6.1,6.1,6.1
			c8.96,0,14.9-12.67,14.9-22.7c0-6.49-2.93-9.19-5.33-9.19c-0.39,0-0.93,0.08-2.16,0.62l-0.39-0.54L321.07,121.01z"/>
	</g>
	<g>
		<path class="st0" d="M25.98,194.41h-4.82v-4.82H4.82v4.82H0v-18.48h20.16c3.21,0,5.83,2.61,5.83,5.83v2.01
			c0,1.41-0.67,2.61-1.67,3.41c1,0.8,1.67,2.01,1.67,3.42V194.41z M21.16,184.77v-4.02H4.82v4.02H21.16z"/>
		<path class="st0" d="M65.83,194.41H45.67c-3.21,0-5.83-2.61-5.83-5.83v-6.83c0-3.21,2.61-5.83,5.83-5.83h20.16v4.82H44.67v2.01
			h21.16v4.82H44.67v2.01h21.16V194.41z"/>
		<path class="st0" d="M105.88,175.93v14.06c0,2.68-2.14,4.82-4.82,4.82c-1.34,0-2.54-0.54-3.41-1.41l-13.13-13.06v14.06h-4.82
			v-14.06c0-2.68,2.18-4.82,4.82-4.82c1.34,0,2.51,0.57,3.42,1.44l13.13,13.02v-14.06H105.88z"/>
		<path class="st0" d="M145.73,188.59c0,3.21-2.61,5.83-5.83,5.83h-20.16v-18.48h20.16c3.21,0,5.83,2.61,5.83,5.83V188.59z
			 M140.9,189.59v-8.84h-16.34v8.84H140.9z"/>
		<path class="st0" d="M185.57,194.41h-20.16c-3.21,0-5.83-2.61-5.83-5.83v-6.83c0-3.21,2.61-5.83,5.83-5.83h20.16v4.82h-21.16v2.01
			h21.16v4.82h-21.16v2.01h21.16V194.41z"/>
		<path class="st0" d="M225.42,194.41h-4.82v-4.82h-16.34v4.82h-4.82v-18.48h20.16c3.21,0,5.83,2.61,5.83,5.83v2.01
			c0,1.41-0.67,2.61-1.67,3.41c1,0.8,1.67,2.01,1.67,3.42V194.41z M220.6,184.77v-4.02h-16.34v4.02H220.6z"/>
		<path class="st0" d="M244.11,194.41h-4.82v-18.48h4.82V194.41z"/>
		<path class="st0" d="M284.15,175.93v14.06c0,2.68-2.14,4.82-4.82,4.82c-1.34,0-2.54-0.54-3.41-1.41l-13.13-13.06v14.06h-4.82
			v-14.06c0-2.68,2.18-4.82,4.82-4.82c1.34,0,2.51,0.57,3.42,1.44l13.13,13.02v-14.06H284.15z"/>
		<path class="st0" d="M324,188.59c0,3.21-2.61,5.83-5.83,5.83h-14.33c-3.21,0-5.83-2.61-5.83-5.83v-6.83
			c0-3.21,2.61-5.83,5.83-5.83H324v4.82h-21.16v8.84h16.34v-2.01h-8.17v-4.82H324V188.59z"/>
	</g>
</g>
</svg>
