<?xml version="1.0" encoding="utf-8"?>
<!-- Generator: Adobe Illustrator 23.0.3, SVG Export Plug-In . SVG Version: 6.00 Build 0)  -->
<svg version="1.1" id="Layer_1" xmlns="http://www.w3.org/2000/svg" xmlns:xlink="http://www.w3.org/1999/xlink" x="0px" y="0px"
	 viewBox="0 0 572.37 44.98" style="enable-background:new 0 0 572.37 44.98;" xml:space="preserve">
<style type="text/css">
	.st0{fill:#FFFFFF;}
	.st1{fill:url(#SVGID_1_);}
	.st2{fill:url(#SVGID_2_);}
	.st3{fill:url(#SVGID_3_);}
	.st4{fill:url(#SVGID_4_);}
	.st5{fill:url(#SVGID_5_);}
	.st6{fill:url(#SVGID_6_);}
	.st7{fill:url(#SVGID_7_);}
	.st8{fill:url(#SVGID_8_);}
	.st9{fill:url(#SVGID_9_);}
	.st10{fill:url(#SVGID_10_);}
	.st11{fill:url(#SVGID_11_);}
	.st12{fill:url(#SVGID_12_);}
	.st13{fill:url(#SVGID_13_);}
	.st14{fill:url(#SVGID_14_);}
	.st15{fill:url(#SVGID_15_);}
	.st16{fill:url(#SVGID_16_);}
	.st17{fill:url(#SVGID_17_);}
	.st18{fill:url(#SVGID_18_);}
	.st19{fill:url(#SVGID_19_);}
	.st20{fill:url(#SVGID_20_);}
	.st21{fill:url(#SVGID_21_);}
	.st22{fill:url(#SVGID_22_);}
	.st23{fill:url(#SVGID_23_);}
	.st24{fill:url(#SVGID_24_);}
	.st25{fill:url(#SVGID_25_);}
	.st26{fill:url(#SVGID_26_);}
	.st27{fill:url(#SVGID_27_);}
	.st28{fill:url(#SVGID_28_);}
	.st29{fill:url(#SVGID_29_);}
	.st30{fill:url(#SVGID_30_);}
	.st31{fill:url(#SVGID_31_);}
	.st32{fill:url(#SVGID_32_);}
	.st33{fill:url(#SVGID_33_);}
	.st34{fill:url(#SVGID_34_);}
	.st35{fill:url(#SVGID_35_);}
	.st36{fill:url(#SVGID_36_);}
	.st37{fill:url(#SVGID_37_);}
	.st38{fill:url(#SVGID_38_);}
	.st39{fill:url(#SVGID_39_);}
	.st40{fill:url(#SVGID_40_);}
	.st41{fill:url(#SVGID_41_);}
	.st42{fill:url(#SVGID_42_);}
	.st43{fill:url(#SVGID_43_);}
	.st44{fill:url(#SVGID_44_);}
	.st45{fill:url(#SVGID_45_);}
</style>
<g>
	<g>
		<linearGradient id="SVGID_1_" gradientUnits="userSpaceOnUse" x1="22.3844" y1="43.1402" x2="22.3844" y2="5.9072">
			<stop  offset="0" style="stop-color:#ED1C24"/>
			<stop  offset="0.1694" style="stop-color:#EE2624"/>
			<stop  offset="0.3864" style="stop-color:#EF3D24"/>
			<stop  offset="0.6294" style="stop-color:#F15725"/>
			<stop  offset="0.8895" style="stop-color:#F47527"/>
			<stop  offset="1" style="stop-color:#F58229"/>
		</linearGradient>
		<path class="st1" d="M44.66,6.41c-3.96,0.78-4.3,2.4-5.41,7.59l-4.63,21.66C34.22,37.45,34,39.23,34,39.9c0,1.4,0.5,2.4,3.29,2.74
			l-0.11,0.5H25.34l0.11-0.5c2.68-0.39,4.02-1.4,4.74-3.85c0.39-1.34,1.9-7.93,1.9-9.77c0-0.5,0-1.12-0.56-1.79
			c-1.51-1.95-3.41-3.85-3.8-4.24L14.57,9.76l-5.53,25.9c-0.39,1.79-0.61,3.57-0.61,4.24c0,1.34,0.5,2.4,3.46,2.74l-0.11,0.5H0
			l0.11-0.5c3.96-0.78,4.3-2.4,5.41-7.59l4.58-21.6c0.56-2.74,0.61-4.02,0.61-4.3c0-1.4-0.56-2.23-2.96-2.74l0.11-0.5h14.12
			l-0.11,0.5c-0.67,0.06-1,0.11-1,0.5c0,0.56,1.28,1.73,2.12,2.57L34.22,20.2l1.45-6.75c0.56-2.74,0.61-4.02,0.61-4.3
			c0-1.45-0.56-2.29-2.96-2.74l0.11-0.5h11.33L44.66,6.41z"/>
		<linearGradient id="SVGID_2_" gradientUnits="userSpaceOnUse" x1="57.2724" y1="43.8659" x2="57.2724" y2="14.6711">
			<stop  offset="0" style="stop-color:#ED1C24"/>
			<stop  offset="0.1694" style="stop-color:#EE2624"/>
			<stop  offset="0.3864" style="stop-color:#EF3D24"/>
			<stop  offset="0.6294" style="stop-color:#F15725"/>
			<stop  offset="0.8895" style="stop-color:#F47527"/>
			<stop  offset="1" style="stop-color:#F58229"/>
		</linearGradient>
		<path class="st2" d="M67.1,41.58c-2.12,0.95-5.19,2.29-9.55,2.29c-9.88,0-13.84-6.92-13.84-12.67c0-9.77,9.88-16.52,18.64-16.52
			c4.74,0,8.48,1.9,8.48,5.36c0,7.03-13.01,9.15-20.71,9.38c-0.22,0.78-0.33,1.28-0.33,2.57c0,4.8,2.51,9.43,7.98,9.43
			c2.34,0,4.91-0.84,7.37-2.74c2.62-2.07,3.52-3.96,4.3-5.69l0.39,0.17L67.1,41.58z M64.92,20.09c0-1.62-1.23-2.96-3.29-2.96
			c-2.74,0-8.82,2.62-10.89,9.99C59,26.84,64.92,23.77,64.92,20.09z"/>
		<linearGradient id="SVGID_3_" gradientUnits="userSpaceOnUse" x1="89.1188" y1="43.8659" x2="89.1188" y2="13.8896">
			<stop  offset="0" style="stop-color:#ED1C24"/>
			<stop  offset="0.1694" style="stop-color:#EE2624"/>
			<stop  offset="0.3864" style="stop-color:#EF3D24"/>
			<stop  offset="0.6294" style="stop-color:#F15725"/>
			<stop  offset="0.8895" style="stop-color:#F47527"/>
			<stop  offset="1" style="stop-color:#F58229"/>
		</linearGradient>
		<path class="st3" d="M100.14,13.89c0.67,1.12,2.12,3.41,2.12,8.09c0,8.99-6.48,21.88-16.69,21.88c-4.19,0-8.71-2.46-8.71-7.31
			c0-1.62,0.22-2.4,0.73-4.8l1.34-6.48c0.33-1.62,0.67-4.02,0.67-5.36c0-1.34-0.73-3.35-3.57-3.46l-0.06-0.5l7.87-0.89
			c0.73,0.73,1.73,1.84,1.73,4.13c0,1.79-0.17,2.85-0.73,5.47l-1.51,7.26c-0.39,1.84-0.73,3.85-0.73,4.86
			c0,3.24,2.68,4.41,4.41,4.41c6.48,0,10.77-9.15,10.77-16.41c0-4.69-2.12-6.64-3.85-6.64c-0.28,0-0.67,0.06-1.56,0.45l-0.28-0.39
			L100.14,13.89z"/>
	</g>
	<g>
		<linearGradient id="SVGID_4_" gradientUnits="userSpaceOnUse" x1="198.4445" y1="42.2562" x2="198.4445" y2="20.0348">
			<stop  offset="0" style="stop-color:#262262"/>
			<stop  offset="0.1478" style="stop-color:#2B2363"/>
			<stop  offset="0.3372" style="stop-color:#3A2468"/>
			<stop  offset="0.5492" style="stop-color:#502571"/>
			<stop  offset="0.7761" style="stop-color:#6D267D"/>
			<stop  offset="1" style="stop-color:#92278F"/>
		</linearGradient>
		<path class="st4" d="M214.06,42.26h-5.8v-5.8h-19.64v5.8h-5.8V20.03h24.23c3.86,0,7,3.14,7,7v2.42c0,1.69-0.81,3.14-2.01,4.11
			c1.21,0.97,2.01,2.42,2.01,4.11V42.26z M208.27,30.66v-4.83h-19.64v4.83H208.27z"/>
		<linearGradient id="SVGID_5_" gradientUnits="userSpaceOnUse" x1="246.3523" y1="42.2562" x2="246.3523" y2="20.0348">
			<stop  offset="0" style="stop-color:#262262"/>
			<stop  offset="0.1478" style="stop-color:#2B2363"/>
			<stop  offset="0.3372" style="stop-color:#3A2468"/>
			<stop  offset="0.5492" style="stop-color:#502571"/>
			<stop  offset="0.7761" style="stop-color:#6D267D"/>
			<stop  offset="1" style="stop-color:#92278F"/>
		</linearGradient>
		<path class="st5" d="M261.97,42.26h-24.23c-3.86,0-7-3.14-7-7v-8.21c0-3.86,3.14-7,7-7h24.23v5.8h-25.44v2.42h25.44v5.8h-25.44
			v2.42h25.44V42.26z"/>
		<linearGradient id="SVGID_6_" gradientUnits="userSpaceOnUse" x1="294.3811" y1="42.7394" x2="294.3811" y2="19.5516">
			<stop  offset="0" style="stop-color:#262262"/>
			<stop  offset="0.1478" style="stop-color:#2B2363"/>
			<stop  offset="0.3372" style="stop-color:#3A2468"/>
			<stop  offset="0.5492" style="stop-color:#502571"/>
			<stop  offset="0.7761" style="stop-color:#6D267D"/>
			<stop  offset="1" style="stop-color:#92278F"/>
		</linearGradient>
		<path class="st6" d="M310.12,20.03v16.91c0,3.22-2.58,5.8-5.8,5.8c-1.61,0-3.06-0.64-4.11-1.69l-15.78-15.7v16.91h-5.8V25.35
			c0-3.22,2.62-5.8,5.8-5.8c1.61,0,3.02,0.68,4.11,1.73l15.78,15.66V20.03H310.12z"/>
		<linearGradient id="SVGID_7_" gradientUnits="userSpaceOnUse" x1="342.41" y1="42.2562" x2="342.41" y2="20.0348">
			<stop  offset="0" style="stop-color:#262262"/>
			<stop  offset="0.1478" style="stop-color:#2B2363"/>
			<stop  offset="0.3372" style="stop-color:#3A2468"/>
			<stop  offset="0.5492" style="stop-color:#502571"/>
			<stop  offset="0.7761" style="stop-color:#6D267D"/>
			<stop  offset="1" style="stop-color:#92278F"/>
		</linearGradient>
		<path class="st7" d="M358.03,35.25c0,3.86-3.14,7-7,7h-24.23V20.03h24.23c3.86,0,7,3.14,7,7V35.25z M352.23,36.46V25.83h-19.64
			v10.63H352.23z"/>
		<linearGradient id="SVGID_8_" gradientUnits="userSpaceOnUse" x1="390.3178" y1="42.2562" x2="390.3178" y2="20.0348">
			<stop  offset="0" style="stop-color:#262262"/>
			<stop  offset="0.1478" style="stop-color:#2B2363"/>
			<stop  offset="0.3372" style="stop-color:#3A2468"/>
			<stop  offset="0.5492" style="stop-color:#502571"/>
			<stop  offset="0.7761" style="stop-color:#6D267D"/>
			<stop  offset="1" style="stop-color:#92278F"/>
		</linearGradient>
		<path class="st8" d="M405.94,42.26H381.7c-3.86,0-7-3.14-7-7v-8.21c0-3.86,3.14-7,7-7h24.23v5.8H380.5v2.42h25.44v5.8H380.5v2.42
			h25.44V42.26z"/>
		<linearGradient id="SVGID_9_" gradientUnits="userSpaceOnUse" x1="438.2258" y1="42.2562" x2="438.2258" y2="20.0348">
			<stop  offset="0" style="stop-color:#262262"/>
			<stop  offset="0.1478" style="stop-color:#2B2363"/>
			<stop  offset="0.3372" style="stop-color:#3A2468"/>
			<stop  offset="0.5492" style="stop-color:#502571"/>
			<stop  offset="0.7761" style="stop-color:#6D267D"/>
			<stop  offset="1" style="stop-color:#92278F"/>
		</linearGradient>
		<path class="st9" d="M453.85,42.26h-5.8v-5.8H428.4v5.8h-5.8V20.03h24.23c3.86,0,7,3.14,7,7v2.42c0,1.69-0.81,3.14-2.01,4.11
			c1.21,0.97,2.01,2.42,2.01,4.11V42.26z M448.05,30.66v-4.83H428.4v4.83H448.05z"/>
		<linearGradient id="SVGID_10_" gradientUnits="userSpaceOnUse" x1="473.4127" y1="42.2562" x2="473.4127" y2="20.0348">
			<stop  offset="0" style="stop-color:#262262"/>
			<stop  offset="0.1478" style="stop-color:#2B2363"/>
			<stop  offset="0.3372" style="stop-color:#3A2468"/>
			<stop  offset="0.5492" style="stop-color:#502571"/>
			<stop  offset="0.7761" style="stop-color:#6D267D"/>
			<stop  offset="1" style="stop-color:#92278F"/>
		</linearGradient>
		<path class="st10" d="M476.31,42.26h-5.8V20.03h5.8V42.26z"/>
		<linearGradient id="SVGID_11_" gradientUnits="userSpaceOnUse" x1="508.7189" y1="42.7394" x2="508.7189" y2="19.5516">
			<stop  offset="0" style="stop-color:#262262"/>
			<stop  offset="0.1478" style="stop-color:#2B2363"/>
			<stop  offset="0.3372" style="stop-color:#3A2468"/>
			<stop  offset="0.5492" style="stop-color:#502571"/>
			<stop  offset="0.7761" style="stop-color:#6D267D"/>
			<stop  offset="1" style="stop-color:#92278F"/>
		</linearGradient>
		<path class="st11" d="M524.46,20.03v16.91c0,3.22-2.58,5.8-5.8,5.8c-1.61,0-3.06-0.64-4.11-1.69l-15.78-15.7v16.91h-5.8V25.35
			c0-3.22,2.62-5.8,5.8-5.8c1.61,0,3.02,0.68,4.11,1.73l15.78,15.66V20.03H524.46z"/>
		<linearGradient id="SVGID_12_" gradientUnits="userSpaceOnUse" x1="556.7477" y1="42.2562" x2="556.7477" y2="20.0348">
			<stop  offset="0" style="stop-color:#262262"/>
			<stop  offset="0.1478" style="stop-color:#2B2363"/>
			<stop  offset="0.3372" style="stop-color:#3A2468"/>
			<stop  offset="0.5492" style="stop-color:#502571"/>
			<stop  offset="0.7761" style="stop-color:#6D267D"/>
			<stop  offset="1" style="stop-color:#92278F"/>
		</linearGradient>
		<path class="st12" d="M572.37,35.25c0,3.86-3.14,7-7,7h-17.23c-3.86,0-7-3.14-7-7v-8.21c0-3.86,3.14-7,7-7h24.23v5.8h-25.44v10.63
			h19.64v-2.42h-9.82v-5.8h15.62V35.25z"/>
	</g>
	<g>
		<g>
			<linearGradient id="SVGID_13_" gradientUnits="userSpaceOnUse" x1="138.201" y1="30.0692" x2="139.0323" y2="6.2649">
				<stop  offset="0" style="stop-color:#ED1C24"/>
				<stop  offset="0.1694" style="stop-color:#EE2624"/>
				<stop  offset="0.3864" style="stop-color:#EF3D24"/>
				<stop  offset="0.6294" style="stop-color:#F15725"/>
				<stop  offset="0.8895" style="stop-color:#F47527"/>
				<stop  offset="1" style="stop-color:#F58229"/>
			</linearGradient>
			<path class="st13" d="M139.43,11.04c-0.38-1.02-0.78-2.08-1.23-3.01c1.1-1.08,3.14-1.26,4.2-1.04c-1.41-0.14-2.64,1.21-2.52,1.75
				s0.35,0.68,1.32,1.03c0.97,0.35,1.73,1.22,1.98,1.89c0,0,1.7,1.05,2.59,2.41c0.24,0.37,0.47,0.99,0.69,1.72
				c-0.2,0.09-0.43,0.13-0.64,0.1c-0.03,0-0.05-0.01-0.07-0.01c-0.83-2.18-2.51-2.39-2.91-1.91c-0.46,0.56-1.21,2.83-0.53,5.17
				c-0.07-0.06-0.14-0.14-0.22-0.22c-0.22-0.44-0.46-0.91-0.73-1.42c-0.3-0.57-0.16-1.22-0.02-1.85c0.09-0.43,0.18-0.84,0.13-1.22
				c-0.09-0.61-0.51-1.05-0.92-1.48c-0.26-0.27-0.53-0.55-0.69-0.86C139.76,11.94,139.61,11.52,139.43,11.04z M149.56,24.36
				c-0.19-1.02-0.36-1.18-1.29-2.71c-0.37-0.61-0.7-1.72-1.02-2.92c-0.27-0.19-0.58-0.29-0.93-0.34c0.5,2.34,1.03,3.2,1.61,4.01
				c0.67,0.94,1.76,2.44,0.55,5.3C149.22,26.46,149.75,25.38,149.56,24.36z M127.56,13.58c0.37-0.2,0.68-0.39,0.95-0.58
				c0.3-0.21,0.55-0.41,0.76-0.6c0.66-0.6,0.92-1.05,1.25-1.2c0.53-0.23,0.55,0.27,0.72,0.65c1.99-0.54,2.72-1.83,3.16-3.05
				c-0.78,0.65-1.24-0.11-2.02,0.34c1.15-1.1,0.73-1.71,0.64-3.08c0.03,2.26-2.21,3.21-2.45,4.37c-1.46-0.38-1.99,0.29-2.37,0.91
				c0.32-0.43,1.18-0.57,1.97-0.43C129.47,11.17,128.98,12.32,127.56,13.58z M145.9,16.37c-0.01,0-0.02,0-0.02,0
				c-0.01,0-0.02,0-0.03,0c-0.03,0-0.06-0.01-0.1-0.01c0,0,0,0,0,0c0,0,0,0,0,0c-0.05-0.01-0.09-0.02-0.14-0.03
				c-0.01,0-0.01,0-0.02,0c-0.04-0.01-0.09-0.03-0.13-0.04c-0.01,0-0.02-0.01-0.02-0.01c-0.04-0.02-0.08-0.04-0.12-0.06
				c-0.01,0-0.01-0.01-0.02-0.01c-0.04-0.02-0.08-0.05-0.12-0.08c0,0,0,0,0,0c-0.04-0.03-0.07-0.06-0.11-0.09
				c-0.01,0-0.01-0.01-0.02-0.01c-0.03-0.03-0.06-0.07-0.09-0.11c-0.01-0.01-0.01-0.01-0.02-0.02c-0.03-0.04-0.05-0.08-0.08-0.12
				c0-0.01-0.01-0.01-0.01-0.02c-0.02-0.05-0.05-0.1-0.07-0.15c-0.02-0.06-0.04-0.12-0.06-0.17c-0.01-0.01-0.01-0.03-0.02-0.04
				c-0.02-0.05-0.04-0.1-0.06-0.14c0,0,0-0.01-0.01-0.01c-0.02-0.05-0.04-0.09-0.07-0.14c-0.01-0.01-0.01-0.02-0.02-0.03
				c-0.02-0.04-0.04-0.07-0.06-0.11c0-0.01-0.01-0.01-0.01-0.02c-0.02-0.04-0.05-0.07-0.07-0.1c-0.01-0.01-0.01-0.02-0.02-0.02
				c-0.02-0.03-0.04-0.05-0.06-0.08c0,0-0.01-0.01-0.01-0.01c-0.02-0.03-0.05-0.05-0.07-0.07c-0.01-0.01-0.01-0.01-0.02-0.02
				c-0.02-0.02-0.04-0.03-0.06-0.05c0,0-0.01-0.01-0.01-0.01c-0.02-0.02-0.05-0.03-0.07-0.04c-0.01,0-0.01-0.01-0.02-0.01
				c-0.02-0.01-0.04-0.02-0.06-0.02c-0.01,0-0.01,0-0.02-0.01c-0.02-0.01-0.05-0.01-0.07-0.01c-0.03,0-0.07,0-0.1,0
				c-0.01,0-0.02,0-0.02,0c-0.03,0-0.05,0.01-0.08,0.02c-0.01,0-0.02,0.01-0.04,0.01c-0.03,0.01-0.05,0.02-0.08,0.03
				c-0.01,0.01-0.02,0.01-0.03,0.02c-0.04,0.02-0.07,0.04-0.11,0.06c-0.53,0.26-0.93,1.61-0.67,2.94c0.26,1.33,2.07,1.41,2.46,2.75
				c0.4,1.35-0.69,2.49,1.01,3.77c1.58,1.18,1.31,2.16,1.26,2.3c0.43-1.04-0.08-2.14-0.7-2.61c-0.62-0.47-0.83-1.84-0.69-2.63
				c0.13-0.78-1.03-2.57-0.52-3.15c0.04-0.04,0.08-0.09,0.13-0.12v0c0.09,0,0.17,0.01,0.26,0.02c0.01,0,0.01,0,0.02,0
				c0.06,0.01,0.13,0.01,0.19,0.02c0,0,0,0,0,0c0.02,0,0.04,0,0.06,0.01c0.29,0.04,0.56,0.1,0.81,0.21c0,0,0,0,0,0
				c0,0,0.01,0,0.01,0c0.02,0.01,0.05,0.02,0.07,0.03c0.01,0,0.02,0.01,0.02,0.01c0.03,0.01,0.06,0.03,0.09,0.05
				c0.01,0,0.01,0.01,0.02,0.01c0.02,0.01,0.05,0.03,0.07,0.04c0.01,0.01,0.02,0.01,0.03,0.02c0.02,0.01,0.04,0.02,0.06,0.04
				c0.01,0.01,0.02,0.01,0.03,0.02c0.02,0.01,0.04,0.02,0.05,0.04c0.01,0.01,0.02,0.02,0.03,0.02c0.02,0.01,0.04,0.03,0.05,0.04
				c0.01,0.01,0.02,0.02,0.03,0.02c0.02,0.02,0.04,0.03,0.06,0.05c0.01,0.01,0.02,0.01,0.02,0.02c0.03,0.02,0.05,0.05,0.08,0.08
				c0,0,0.01,0.01,0.01,0.01c0.02,0.02,0.04,0.05,0.06,0.07c0.01,0.01,0.02,0.02,0.03,0.03c0.02,0.02,0.03,0.04,0.05,0.06
				c0.01,0.01,0.02,0.02,0.03,0.04c0.02,0.02,0.03,0.04,0.05,0.06c0.01,0.01,0.02,0.03,0.03,0.04c0.02,0.02,0.03,0.04,0.04,0.07
				c0.01,0.01,0.02,0.03,0.03,0.04c0.02,0.02,0.03,0.05,0.05,0.08c0.01,0.01,0.01,0.02,0.02,0.03c0.02,0.04,0.04,0.08,0.07,0.12
				c0,0,0,0.01,0.01,0.01c0.02,0.04,0.04,0.07,0.06,0.11c0.01,0.01,0.01,0.03,0.02,0.04c0.01,0.03,0.03,0.06,0.04,0.09
				c0.01,0.02,0.02,0.04,0.02,0.05c0.01,0.03,0.02,0.06,0.04,0.09c0.01,0.02,0.02,0.04,0.02,0.06c0.01,0.03,0.02,0.06,0.04,0.09
				c0.01,0.02,0.01,0.04,0.02,0.06c0.01,0.03,0.02,0.07,0.04,0.11c0.01,0.02,0.01,0.03,0.02,0.05c0.02,0.05,0.03,0.11,0.05,0.17
				c0.01-0.04,0.02-0.07,0.03-0.11c0-0.01,0-0.02,0.01-0.04c0-0.02,0.01-0.05,0.01-0.07c0-0.01,0-0.03,0-0.04
				c0-0.02,0-0.04,0.01-0.07c0-0.02,0-0.03,0-0.05c0-0.02,0-0.04,0-0.06c0-0.02,0-0.03,0-0.05c0-0.02,0-0.04,0-0.06
				c0-0.02,0-0.03,0-0.05c0-0.02,0-0.04-0.01-0.06c0-0.02,0-0.03-0.01-0.05c0-0.02-0.01-0.04-0.01-0.06c0-0.02-0.01-0.03-0.01-0.05
				c0-0.02-0.01-0.04-0.01-0.06c0-0.02-0.01-0.04-0.01-0.05c-0.01-0.02-0.01-0.04-0.02-0.06c-0.01-0.02-0.01-0.03-0.02-0.05
				c-0.01-0.02-0.01-0.04-0.02-0.06c-0.01-0.02-0.01-0.03-0.02-0.05c-0.01-0.02-0.02-0.04-0.02-0.06c-0.01-0.02-0.01-0.03-0.02-0.05
				c-0.01-0.02-0.02-0.04-0.03-0.06c-0.01-0.02-0.02-0.03-0.02-0.05c-0.01-0.02-0.02-0.04-0.03-0.06c-0.01-0.02-0.02-0.03-0.03-0.05
				c-0.01-0.02-0.02-0.04-0.03-0.06c-0.01-0.02-0.02-0.03-0.03-0.05c-0.01-0.02-0.03-0.04-0.04-0.06c-0.01-0.01-0.02-0.03-0.03-0.04
				c-0.02-0.03-0.05-0.06-0.07-0.1c-0.01-0.01-0.02-0.03-0.03-0.04c-0.01-0.02-0.03-0.04-0.04-0.06c-0.01-0.01-0.02-0.03-0.04-0.04
				c-0.01-0.02-0.03-0.03-0.04-0.05c-0.01-0.01-0.03-0.03-0.04-0.04c-0.01-0.02-0.03-0.03-0.04-0.05c-0.01-0.01-0.03-0.03-0.04-0.04
				c-0.02-0.01-0.03-0.03-0.05-0.04c-0.01-0.01-0.03-0.03-0.04-0.04c-0.02-0.01-0.03-0.03-0.05-0.04c-0.02-0.01-0.03-0.02-0.05-0.04
				c-0.02-0.01-0.03-0.03-0.05-0.04c-0.02-0.01-0.03-0.02-0.05-0.03c-0.02-0.01-0.03-0.02-0.05-0.03c-0.02-0.01-0.03-0.02-0.05-0.03
				c-0.02-0.01-0.04-0.02-0.05-0.03c-0.02-0.01-0.03-0.02-0.05-0.03c-0.02-0.01-0.04-0.02-0.06-0.03c-0.02-0.01-0.03-0.02-0.05-0.03
				c-0.02-0.01-0.04-0.02-0.06-0.03c-0.02-0.01-0.03-0.02-0.05-0.02c-0.02-0.01-0.04-0.02-0.06-0.02c-0.02-0.01-0.03-0.01-0.05-0.02
				c-0.02-0.01-0.04-0.01-0.06-0.02c-0.02-0.01-0.03-0.01-0.05-0.01c-0.02-0.01-0.05-0.01-0.07-0.02c-0.06-0.01-0.11-0.02-0.17-0.03
				c-0.08-0.01-0.16-0.02-0.25-0.02l0,0c0.59-0.2,1.21-0.35,1.2-0.67c-0.01-0.51,0.16-2.21,1.18-2.47c-1.23,0.26-1.17,0.72-1.7,1.44
				c-0.02,0.02-0.04,0.05-0.06,0.07c-0.01,0.01-0.01,0.02-0.02,0.02c-0.01,0.02-0.03,0.03-0.04,0.04c-0.01,0.01-0.02,0.02-0.03,0.03
				c-0.01,0.01-0.03,0.03-0.04,0.04c-0.01,0.01-0.02,0.02-0.03,0.02c-0.01,0.01-0.03,0.02-0.05,0.03c-0.01,0.01-0.02,0.02-0.03,0.02
				c-0.02,0.01-0.03,0.02-0.05,0.03c-0.01,0.01-0.02,0.01-0.03,0.02c-0.02,0.01-0.04,0.02-0.05,0.03c-0.01,0.01-0.02,0.01-0.03,0.02
				c-0.02,0.01-0.04,0.02-0.06,0.03c-0.01,0-0.02,0.01-0.03,0.01c-0.02,0.01-0.05,0.02-0.07,0.03l0,0
				C146.37,16.33,146.14,16.38,145.9,16.37C145.9,16.37,145.9,16.37,145.9,16.37z M145.91,29.48c0.14-0.52,0.29-1.19,0.34-1.87
				c0.11-1.43-0.59-1.61-0.75-2.26c-0.16-0.65-0.1-0.92-0.73-1.59c-0.63-0.67-0.05-2.12-0.42-2.67c-0.37-0.55-0.8-2.14-1.46-1.78
				c0.06,0.98,0.86,1.9,0.9,2.43c0.04,0.53,0.08,1.48-0.52,3.02c-0.54,1.38-1.72,3.66,0.03,5.48c0.11-0.03,0.23-0.06,0.34-0.08
				c-0.71-1.35-1.22-2.81,0.39-5c0.31-0.47,0.43-0.48,0.39,0.23c-0.04,0.72,0.87,1.37,0.97,2.08c0.07,0.47-0.22,1.6-0.43,2.33
				C145.29,29.69,145.61,29.59,145.91,29.48z"/>
			<path d="M171.27,18.89c0,0-0.23,0.21-0.55,0.99c0,0-0.04-2.76,0.11-3.48c-1.42,1.11-4.67,0.64-6.1,1.22
				c-0.09-0.01,0.16-0.24,0.09-0.76c-0.08,0.21-0.42,0.6-1.6,1.3c-2.09,1.23-3.78,1.71-4.8,5.33c-0.18,0.24-0.15-1.71,0.44-3.29
				c-1.42,2.21-2.44,3.19-2.35,3.62c0.09,0.43,1.16,0.6,0.41,1.36c0.17-0.76-0.57-0.95-1.09-1.32c-0.41-0.26-0.19-1.41-0.46-2.05
				c0,0,0.13,0.55,0.05,1.72c-0.23,2.22-1.78,4.62-1.78,4.62s0.22-0.77,0.26-1.92c0,0-1.4,1.41-2.54,1.46
				c-1.13,0.05-2.51,1.7-3.54,2.1c0,0,0.22-0.56,0.43-1.19c-1.1,1.39-6.23,2.54-9.72,2.75c-3.49,0.21-7.06,2.31-8.65,3.34
				c-0.42,1.81-3.11,3.34-4.55,3.92c0,0,0,0,0.01,0.01c-3.98,1.35-6.6,1.56-8.88,0.82c-0.16-0.05-0.42-0.16-0.43-0.31
				c-0.03-0.7,2.62-2.57,8.63-5.19c0.8-0.35,1.97-0.71,3.33-1.06c2.04-0.47,4.06-0.92,5.91-1.32c4.22-0.84,8.14-1.45,8.22-1.47
				l-0.18-0.56c-0.75-1.88,1.12-5.8,1.09-6.82c-0.04-1.07-1.49-3.85-2.09-4.99c-0.61-1.15,0.17-2.41,0.05-3.22
				c-0.12-0.81-1.11-1.33-1.57-2.19c-0.45-0.86-2.02-6.46-4.01-6.88c0.17,0.49,0.23,1.02,0.16,1.61c-0.01,0.05-0.01,0.11-0.02,0.16
				c-0.01,0.05-0.02,0.11-0.03,0.16c-0.03,0.17-0.07,0.34-0.12,0.51c-0.03,0.12-0.07,0.24-0.11,0.36c-0.02,0.06-0.04,0.12-0.07,0.18
				c-0.05,0.12-0.1,0.25-0.16,0.38s-0.12,0.26-0.18,0.4s-0.14,0.27-0.21,0.41c-0.11,0.21-0.24,0.43-0.38,0.65
				c-0.18,0.3-0.39,0.61-0.61,0.94c1.29-1.38,2.21-3.12,2.21-3.12c0.04,1.68,0.06,3.2-0.97,4.96c0.67-1.85,0.6-2.73,0.58-3.19
				c-0.59,1.02-2.29,2.65-6.49,3.04c-1.1,3.95-4.83,9.34-7.45,9.9c0.42,1.42-0.51,3.77-0.51,3.77c0.04,0.01,0.09,0.03,0.13,0.04
				c0.09,0.03,0.18,0.07,0.27,0.11c0.37,0.17,0.74,0.4,1.09,0.66c0.09,0.06,0.17,0.13,0.26,0.19c0.04,0.03,0.08,0.07,0.12,0.1
				c0.12,0.1,0.24,0.2,0.35,0.29c0.56,0.48,0.94,0.89,0.94,0.89c0.04,0.05,0.08,0.1,0.14,0.15c0.16,0.16,0.36,0.33,0.49,0.47
				c0.01,0.01,0.03,0.03,0.04,0.04c0,0,0.01,0.01,0.01,0.01c0.01,0.01,0.02,0.01,0.03,0.02c0.01,0,0.01,0.01,0.02,0.01
				c0.01,0.01,0.02,0.01,0.03,0.01c0.01,0,0.01,0,0.02,0.01c0.01,0,0.02,0.01,0.04,0.01c0.01,0,0.01,0,0.02,0c0.02,0,0.05,0,0.07,0
				c0.01,0,0.01,0,0.02,0c0.02,0,0.05-0.01,0.07-0.01c0.04-0.01,0.09-0.03,0.14-0.04c0.02,0,0.03-0.01,0.05-0.01
				c0.03-0.01,0.06-0.01,0.09-0.02c0.02,0,0.04-0.01,0.06-0.01c0.03-0.01,0.06-0.01,0.09-0.02c0.02,0,0.04-0.01,0.06-0.01
				c0.03,0,0.06-0.01,0.09-0.01c0.02,0,0.04,0,0.06-0.01c0.03,0,0.06-0.01,0.09-0.01c0.02,0,0.04,0,0.06-0.01
				c0.03,0,0.06,0,0.1-0.01c0.02,0,0.04,0,0.06,0c0.04,0,0.07,0,0.11,0c0.02,0,0.03,0,0.05,0c0.05,0,0.11,0,0.16,0
				c0.01,0,0.02,0,0.02,0c0.05,0,0.09,0,0.14,0c0.02,0,0.04,0,0.06,0c0.03,0,0.07,0,0.1,0c0.02,0,0.04,0,0.07,0
				c0.03,0,0.06,0,0.09,0.01c0.02,0,0.04,0,0.07,0c0.03,0,0.06,0,0.09,0.01c0.02,0,0.04,0,0.06,0.01c0.03,0,0.06,0.01,0.09,0.01
				c0.02,0,0.04,0,0.06,0.01c0.03,0,0.06,0.01,0.09,0.01c0.02,0,0.04,0,0.05,0.01c0.03,0,0.07,0.01,0.1,0.01c0.01,0,0.03,0,0.04,0
				c0.05,0.01,0.09,0.01,0.14,0.02c0,0,0,0,0,0c0.04,0.01,0.08,0.01,0.12,0.02c0.01,0,0.02,0,0.03,0c0.03,0,0.05,0.01,0.08,0.01
				c0.01,0,0.03,0,0.04,0.01c0.02,0,0.04,0.01,0.07,0.01c0.01,0,0.03,0,0.04,0.01c0.02,0,0.04,0.01,0.06,0.01
				c0.01,0,0.03,0,0.04,0.01c0.02,0,0.04,0.01,0.06,0.01c0.01,0,0.02,0,0.04,0.01c0.02,0,0.04,0.01,0.06,0.01
				c0.01,0,0.02,0,0.03,0.01c0.02,0,0.04,0.01,0.06,0.01c0,0,0.01,0,0.01,0c0.02,0,0.05,0.01,0.07,0.01c0.01,0,0.02,0,0.03,0.01
				c0.01,0,0.02,0,0.03,0.01c0.01,0,0.02,0,0.02,0c0.01,0,0.02,0,0.03,0.01c0.01,0,0.01,0,0.02,0c0.01,0,0.02,0,0.02,0
				c0.01,0,0.01,0,0.01,0c0.01,0,0.01,0,0.02,0c0,0,0.01,0,0.01,0c0,0,0.01,0,0.01,0c0.01,0,0.01,0,0.01,0
				c0.29-1.9,1.93-4.19,4.35-5.49c2.42-1.31,6.74-3.23,4.91-6.86c0.81,1.11,0.89,2.06,0.59,3.06c-0.03,0.11-0.07,0.22-0.11,0.34
				c-0.02,0.06-0.04,0.11-0.07,0.17c-0.12,0.29-0.26,0.58-0.42,0.89c-0.03,0.06-0.06,0.12-0.1,0.19c-0.17,0.31-0.35,0.64-0.54,0.99
				c-0.08,0.14-0.17,0.3-0.28,0.47c-0.44,0.69-1.16,1.62-2.08,2.65c-0.11,0.13-0.23,0.26-0.35,0.39c-0.12,0.13-0.24,0.26-0.37,0.4
				c-0.44,0.47-0.92,0.95-1.42,1.42c-0.14,0.14-0.29,0.27-0.44,0.41c-0.22,0.2-0.45,0.41-0.68,0.61c-0.15,0.13-0.31,0.27-0.47,0.4
				s-0.32,0.26-0.48,0.39c-0.32,0.26-0.65,0.51-0.99,0.76c-0.25,0.18-0.51,0.36-0.76,0.54c-0.17,0.12-0.34,0.23-0.52,0.34
				c0,0-0.01,0-0.01,0.01c-0.64,0.41-1.34,0.71-2.06,0.93c-0.81,0.24-1.52,0.48-2.06,0.72c-1.28,0.56-3.72,1.66-5.74,2.81
				c-2.95,1.68-3.26,2.48-3.24,2.93c0.01,0.26,0.17,0.62,0.82,0.83c0.52,0.17,1.05,0.29,1.6,0.37c2.09,0.28,4.54-0.11,7.91-1.28
				c1.1-0.02,4.56,0.6,6.43,0.46c2-0.14,4.9-2.33,9.03-3.02c4.13-0.69,6.3,0.17,8.86,0.04c2.56-0.13,2.88-0.97,3.65-1.37
				c-0.64,0.12-0.88-0.27-2.09-0.52c1.57,0.13,3.1-0.17,4.41-0.65c1.32-1.2,2.07-2.51,2.05-3.94c0.12,0.88,0.11,1.83-0.17,2.82
				c-0.02,0.08-0.05,0.16-0.07,0.24c0,0.01-0.01,0.02-0.01,0.04c0.34-0.2,0.64-0.4,0.91-0.6c1.48-1.13,3.11-0.68,4.09-1.11
				c-1.14,0.14-1.21-0.25-2.25-0.18c0,0-0.3-0.66,3.44-1.62c3.74-0.96,4.46-1.72,5.4-2.75c-1.29,1.04-1.87,0.46-3.57,0.76
				c0,0,2.08-1.59,3.66-3.24C171.16,22.79,170.98,19.71,171.27,18.89z M122.7,25.14c-0.2-0.1-0.26-0.56-0.26-0.56
				c0.28-0.32,0.41-0.67,0.59-1.1c0.03,0,0.06-0.01,0.08-0.01c0.03,0,0.05,0,0.08,0c0.09,0,0.18,0.01,0.28,0.01
				c0.09,0,0.18,0,0.3-0.02c0.1-0.02,0.21-0.04,0.35-0.09c0.08-0.03,0.17-0.06,0.27-0.1c0.23-0.09,0.51-0.22,0.85-0.4
				C124.33,23.48,122.82,24.09,122.7,25.14z M131.91,15.22c-0.02,0.05-0.05,0.09-0.07,0.14c-0.02,0.05-0.04,0.09-0.05,0.14
				c-0.02,0.05-0.03,0.09-0.04,0.14c-0.01,0.02-0.01,0.05-0.02,0.07c-0.02,0.09-0.04,0.19-0.06,0.28c-0.01,0.04-0.02,0.09-0.03,0.13
				c-0.02,0.09-0.05,0.17-0.08,0.24c-0.03,0.08-0.07,0.14-0.12,0.21c-0.02,0.03-0.05,0.06-0.08,0.08c-0.04,0.04-0.1,0.07-0.16,0.1
				c-0.14,0.06-0.33,0.15-0.53,0.25c-0.03,0.01-0.06,0.03-0.09,0.04c-0.06,0.03-0.12,0.06-0.18,0.09c-0.09,0.05-0.18,0.09-0.28,0.14
				c-0.09,0.05-0.18,0.09-0.27,0.14c-0.03,0.02-0.06,0.03-0.09,0.04c-0.06,0.03-0.11,0.06-0.17,0.09c-0.03,0.01-0.05,0.03-0.08,0.04
				c-0.05,0.03-0.1,0.05-0.15,0.08c-0.23,0.12-0.38,0.2-0.38,0.2c0.84-0.87,1.02-1.69,1.02-1.69c0.05-0.02,0.1-0.03,0.14-0.05
				c0.01-0.01,0.03-0.01,0.04-0.02c0.01,0,0.02-0.01,0.02-0.01c0.06-0.02,0.11-0.05,0.17-0.07c0.02-0.01,0.03-0.01,0.05-0.02
				c0.02-0.01,0.03-0.02,0.05-0.02c0.01,0,0.01-0.01,0.02-0.01c0.02-0.01,0.05-0.02,0.07-0.04c0.01,0,0.02-0.01,0.03-0.01
				c0.02-0.01,0.05-0.02,0.07-0.04c0.01-0.01,0.02-0.01,0.04-0.02c0.02-0.01,0.04-0.02,0.06-0.03c0.02-0.01,0.03-0.02,0.05-0.03
				c0.02-0.01,0.03-0.02,0.05-0.03c0.01-0.01,0.03-0.02,0.04-0.02c0.02-0.01,0.03-0.02,0.05-0.03c0.01-0.01,0.02-0.01,0.04-0.02
				c0.02-0.01,0.04-0.02,0.06-0.03c0.01,0,0.01-0.01,0.02-0.01c0.02-0.02,0.05-0.03,0.07-0.05c0.01-0.01,0.02-0.01,0.03-0.02
				c0.02-0.01,0.04-0.02,0.06-0.04c0.01-0.01,0.03-0.02,0.04-0.03c0.02-0.01,0.03-0.02,0.05-0.03c0.01-0.01,0.02-0.01,0.03-0.02
				c0.02-0.01,0.04-0.02,0.06-0.04c0,0,0.01-0.01,0.01-0.01c0.02-0.02,0.05-0.03,0.07-0.05c0.01,0,0.01-0.01,0.02-0.01
				c0.02-0.01,0.04-0.03,0.06-0.04c0.01-0.01,0.01-0.01,0.02-0.02c0.02-0.01,0.04-0.03,0.05-0.04c0,0,0.01,0,0.01-0.01
				c0.02-0.02,0.04-0.03,0.06-0.04c0.01-0.01,0.01-0.01,0.02-0.02c0.02-0.01,0.03-0.02,0.05-0.03c0.01-0.01,0.01-0.01,0.02-0.02
				c0.01-0.01,0.03-0.02,0.04-0.03c0,0,0,0,0,0c0.02-0.01,0.04-0.03,0.06-0.04c0,0,0,0,0,0c0.04-0.03,0.07-0.05,0.1-0.08
				c0.01,0,0.01-0.01,0.02-0.01c0.01-0.01,0.02-0.02,0.03-0.02c0,0,0.01-0.01,0.01-0.01c0.04-0.03,0.07-0.06,0.09-0.08
				c0.01-0.01,0.02-0.02,0.03-0.03c0.01,0,0.01-0.01,0.01-0.01c0.01,0,0.01-0.01,0.01-0.01C132.08,14.95,131.99,15.08,131.91,15.22z
				 M163.34,27c-2.4,0.92-3.13,0.35-5.47,1.97c-2.35,1.62-5.14,4.98-13.15,5.53c-8.01,0.55-9.76,1.47-13.26,2.42
				c-1.16,0.32-2.28,0.67-3.24,1.01l-0.01-0.02c0.92-0.42,2.34-1.29,3.61-1.77c5.27-1.98,8.58-1.92,11.04-2.19
				c2.46-0.26,3.08,0.18,7.23-1.13s5.76-3.19,8.85-5.7c0.76-2.38,1.52-4.92,4.51-6.21c2.99-1.29,2.82,0.38,5.37-1.2
				C167.68,21.81,168.66,24.85,163.34,27z"/>
			<linearGradient id="SVGID_14_" gradientUnits="userSpaceOnUse" x1="153.0987" y1="26.3862" x2="153.0987" y2="0">
				<stop  offset="0" style="stop-color:#262262"/>
				<stop  offset="0.1478" style="stop-color:#2B2363"/>
				<stop  offset="0.3372" style="stop-color:#3A2468"/>
				<stop  offset="0.5492" style="stop-color:#502571"/>
				<stop  offset="0.7761" style="stop-color:#6D267D"/>
				<stop  offset="1" style="stop-color:#92278F"/>
			</linearGradient>
			<path class="st14" d="M148.12,8.28c0.58,1.64,1.33,1.41,1.33,2.34c-0.01,0.93-1,0.81-1.16,0.18c0.2,1.63,1.96,2.76,2.37,3.15
				c0.41,0.39-0.01,0.68-0.57,1.11c0.87,0.46,2.27,1.7,1.66,2.13c-0.61,0.43-0.98-0.26-2.15-0.65c0,0,0.69,0.87,0.57,2.36
				s0.21,2.2,0.53,2.96c0.32,0.76,1.91,0.55,2.47,1.73c-0.43-0.27-1.4-0.7-2.32-0.35c0.66,0.13,0.44,2.72,1.53,3.11
				c0.55,0.19,1.32-0.46,1.94-1.16c0.69-0.78,1.01-1.82,0.87-2.85l-0.08-0.56c0,0-1.91-9.99-2.26-10.88
				c-0.35-0.89-2.44-1.39-2.7-2.88c-0.26-1.5,0.94-1.67,0.4-2.97c1.6,2.5,2.5,0.89,3.52,3.1c1.01,2.21-0.13,2.56-0.01,3.85
				s1.14,7.58,1.14,7.58l0.78,3.59c0.02,0.1,0.15,0.12,0.2,0.04c0.21-0.31,0.62-0.92,1.12-1.63c-0.67-3.21,1.01-5.92,0.89-7.84
				c0,0-0.45,0.83-1.06,1.31c0.42-0.94,0.4-1.4,0.49-2.1c0.1-0.71-0.01-1.19,0.07-2.11c0,0-0.55,0.6-1.06,1
				c0.56-0.5,0.79-1.51,0.75-2.58c-0.01,0.79-0.99,0.84-1.37,1.52c0,0,0.65-1.69-0.07-4.83c-1.3-3.22-5.37-2.84-7.13-5.95
				C149.73,2.33,147.54,6.64,148.12,8.28z"/>
			<path d="M156.28,34.32c-4.5,4.01-14.59,6.24-20.21,7.21c-8.05,1.39-16.53,1.92-21.09,1.31c-1.82-0.25-2.87-0.66-3.19-1.27
				c-0.1-0.2-0.19-0.51,0.01-0.9c0.94-1.89,2.56-3.42,4.48-4.78c-1.23,0.73-2.31,1.43-3.24,2.09c-3.39,2.44-3.96,3.88-3.85,4.66
				c0.15,1.01,1.62,1.74,4.24,2.09c3.61,0.49,9.4,0.24,16.75-0.7c14.28-1.83,23.12-4.85,26.3-8.98c0.56-0.72,0.94-1.48,1.16-2.29
				C157.31,33.3,156.85,33.82,156.28,34.32z"/>
		</g>
		<linearGradient id="SVGID_15_" gradientUnits="userSpaceOnUse" x1="125.3409" y1="27.9836" x2="171.2713" y2="27.9836">
			<stop  offset="0" style="stop-color:#000000"/>
			<stop  offset="0.0799" style="stop-color:#000000"/>
			<stop  offset="0.2517" style="stop-color:#0A0425"/>
			<stop  offset="0.4742" style="stop-color:#262262"/>
			<stop  offset="0.5519" style="stop-color:#2B2363"/>
			<stop  offset="0.6515" style="stop-color:#3A2468"/>
			<stop  offset="0.763" style="stop-color:#502571"/>
			<stop  offset="0.8823" style="stop-color:#6D267D"/>
			<stop  offset="1" style="stop-color:#92278F"/>
		</linearGradient>
		<path class="st15" d="M169.58,24.44c1.58-1.65,1.41-4.72,1.69-5.54c0,0-0.23,0.21-0.55,0.99c0,0-0.04-2.76,0.11-3.48
			c-1.42,1.11-4.67,0.64-6.1,1.22c-0.09-0.01,0.16-0.24,0.09-0.76c-0.08,0.21-0.42,0.6-1.6,1.3c-2.09,1.23-3.78,1.71-4.8,5.33
			c-0.18,0.24-0.15-1.71,0.44-3.29c-1.42,2.21-2.44,3.19-2.35,3.62c0.09,0.43,1.16,0.6,0.41,1.36c0.17-0.76-0.57-0.95-1.09-1.32
			c-0.41-0.26-0.19-1.41-0.46-2.05c0,0,0.13,0.55,0.05,1.72c-0.23,2.22-1.78,4.62-1.78,4.62s0.22-0.77,0.26-1.92
			c0,0-1.4,1.41-2.54,1.46c-1.13,0.05-2.51,1.7-3.54,2.1c0,0,0.22-0.56,0.43-1.19c-1.1,1.39-6.23,2.54-9.72,2.75
			c-3.49,0.21-7.06,2.31-8.65,3.34c-0.42,1.81-3.11,3.34-4.55,3.92c0,0,0,0,0.01,0.01l0.45,0.46c1.1-0.02,4.56,0.6,6.43,0.46
			c2-0.14,4.9-2.33,9.03-3.02c4.13-0.69,6.3,0.17,8.86,0.04c2.56-0.13,2.88-0.97,3.65-1.37c-0.64,0.12-0.88-0.27-2.09-0.52
			c1.57,0.13,3.1-0.17,4.41-0.65c1.32-1.2,2.07-2.51,2.05-3.94c0.12,0.88,0.11,1.83-0.17,2.82c-0.02,0.08-0.05,0.16-0.07,0.24
			c0,0.01-0.01,0.02-0.01,0.04c0.34-0.2,0.64-0.4,0.91-0.6c1.48-1.13,3.11-0.68,4.09-1.11c-1.14,0.14-1.21-0.25-2.25-0.18
			c0,0-0.3-0.66,3.44-1.62c3.74-0.96,4.46-1.72,5.4-2.75c-1.29,1.04-1.87,0.46-3.57,0.76C165.92,27.67,167.99,26.09,169.58,24.44z
			 M163.34,27c-2.4,0.92-3.13,0.35-5.47,1.97c-2.35,1.62-5.14,4.98-13.15,5.53c-8.01,0.55-9.76,1.47-13.26,2.42
			c-1.16,0.32-2.28,0.67-3.24,1.01l-0.01-0.02c0.92-0.42,2.34-1.29,3.61-1.77c5.27-1.98,8.58-1.92,11.04-2.19
			c2.46-0.26,3.08,0.18,7.23-1.13c4.14-1.31,5.76-3.19,8.85-5.7c0.76-2.38,1.52-4.92,4.51-6.21s2.82,0.38,5.37-1.2
			C167.68,21.81,168.66,24.85,163.34,27z"/>
	</g>
</g>
</svg>
